# xmcd
#
# Track frame offsets:
#	150
#	11761
#	22637
#	34025
#	46165
#	56437
#	67714
#	81221
#	93741
#	108752
#	120713
#	142658
#	160184
#	177972
#	197970
#	218165
#	238349
#	251098
#
# Disc length: 3643 seconds
# Revision: 0
# Processed by: cddbd v1.5.2PL0 Copyright (c) Steve Scherf et al.
# Submitted via: dBpowerAMP V12.0
#
DISCID=e70e3912
DTITLE=Willie Nelson - Before His Time/Angel Eyes
DYEAR=2011
DGENRE=Country
TTITLE0=One In a Row
TTITLE1=I'd Trade All of My Tomorrows (For Just One Yesterday)
TTITLE2=She's Not For You
TTITLE3=You Ought to Hear Me Cry
TTITLE4=To Make a Long Story Short (She's Gone)
TTITLE5=I'm a Memory
TTITLE6=Stay Away From Lonely Places
TTITLE7=It Should Be Easier Now
TTITLE8=Little Things
TTITLE9=How Long Have You Been There
TTITLE10=Angel Eyes
TTITLE11=Tumbling Tumbleweeds
TTITLE12=I Fall In Love Too Easily
TTITLE13=Thank You
TTITLE14=My Window Faces the South
TTITLE15=The Gypsy
TTITLE16=There Will Never Be Another You
TTITLE17=Samba For Charlie
EXTD=
EXTT0=
EXTT1=
EXTT2=
EXTT3=
EXTT4=
EXTT5=
EXTT6=
EXTT7=
EXTT8=
EXTT9=
EXTT10=
EXTT11=
EXTT12=
EXTT13=
EXTT14=
EXTT15=
EXTT16=
EXTT17=
PLAYORDER=
